PathFileType	4	(X/Y/Z)	/Users/itak/Documents/Research/Walk-IL/dataset/trc/00004_00004.trc
DataRate	CameraRate	NumFrames	NumMarkers	Units	OrigDataRate	OrigDataStartFrame	OrigNumFrames
100.000000	100.000000	4	53	mm	100.000000	353	566
Frame#	Time	RPSI			LPSI			L3			STRN			T10			C7			CLAV			RBAK			LBAK			LSHO			LUPA			LAEL			LAOL			LWTS			LWPS			LFRA			LIFD			LHPS			LHTS			RSHO			RUPA			RAEL			RAOL			RWTS			RWPS			RFRA			RIFD			RHTS			RHPS			RBHD			LFHD			RFHD			LBHD			LHIP			RHIP			RASI			LASI			LKNE			LTHI			LANK			LTIP			LTOE			LMT1			LMT5			LHEE			RKNE			RTHI			RANK			RTIP			RTOE			RMT1			RMT5			RHEE			
		X1	Y1	Z1	X2	Y2	Z2	X3	Y3	Z3	X4	Y4	Z4	X5	Y5	Z5	X6	Y6	Z6	X7	Y7	Z7	X8	Y8	Z8	X9	Y9	Z9	X10	Y10	Z10	X11	Y11	Z11	X12	Y12	Z12	X13	Y13	Z13	X14	Y14	Z14	X15	Y15	Z15	X16	Y16	Z16	X17	Y17	Z17	X18	Y18	Z18	X19	Y19	Z19	X20	Y20	Z20	X21	Y21	Z21	X22	Y22	Z22	X23	Y23	Z23	X24	Y24	Z24	X25	Y25	Z25	X26	Y26	Z26	X27	Y27	Z27	X28	Y28	Z28	X29	Y29	Z29	X30	Y30	Z30	X31	Y31	Z31	X32	Y32	Z32	X33	Y33	Z33	X34	Y34	Z34	X35	Y35	Z35	X36	Y36	Z36	X37	Y37	Z37	X38	Y38	Z38	X39	Y39	Z39	X40	Y40	Z40	X41	Y41	Z41	X42	Y42	Z42	X43	Y43	Z43	X44	Y44	Z44	X45	Y45	Z45	X46	Y46	Z46	X47	Y47	Z47	X48	Y48	Z48	X49	Y49	Z49	X50	Y50	Z50	X51	Y51	Z51	X52	Y52	Z52	X53	Y53	Z53	

354	3.53	152.0523681640625	1033.9716796875	-177.021484375	144.1389617919922	1026.505126953125	-340.9216918945312	144.6516418457031	1096.909790039062	-264.0381469726562	373.4479370117188	1283.005249023438	-272.6066589355469	123.7425537109375	1241.7802734375	-262.4215087890625	176.1225280761719	1506.773803710938	-280.1642150878906	334.2297668457031	1410.258911132812	-279.5750427246094	125.7266159057617	1374.198364257812	-193.4131927490234	154.2079467773438	1463.572143554688	-375.1563110351562	254.1440124511719	1463.916259765625	-454.3792724609375	205.9800567626953	1340.11328125	-524.3829345703125	170.1235961914062	1125.820556640625	-541.3939819335938	122.2105484008789	1125.033447265625	-446.2089233398438	204.2460479736328	859.4732666015625	-486.8757934570312	122.1714706420898	863.2378540039062	-521.5681762695312	158.2733612060547	1009.834899902344	-544.893798828125	190.8549041748047	675.078125	-468.103271484375	133.01611328125	768.3466796875	-520.6951293945312	204.0914764404297	767.006103515625	-502.1068420410156	262.4382019042969	1495.59423828125	-108.8110809326172	253.4508361816406	1425.206909179688	-33.67946624755859	232.5787658691406	1155.912475585938	3.667838573455811	218.9134216308594	1124.5390625	-90.53361511230469	380.1293640136719	908.4041748046875	-39.46202850341797	325.0345458984375	888.76318359375	31.11146926879883	253.5153045654297	1080.963134765625	18.58391761779785	415.7774658203125	724.9866333007812	-54.71237945556641	425.2916259765625	802.3206787109375	-27.90328025817871	375.0841674804688	792.897216796875	26.32723426818848	231.9146728515625	1687.723388671875	-344.97509765625	418.7628479003906	1695.896484375	-231.9049377441406	414.4607543945312	1696.059692382812	-330.8495788574219	247.0872802734375	1683.276123046875	-201.3188629150391	243.5708770751953	929.742431640625	-450.2621459960938	265.7854309082031	927.742919921875	-76.11981964111328	367.9765625	954.3274536132812	-149.9238128662109	356.5811157226562	978.30615234375	-385.2927551269531	451.6788635253906	534.4755859375	-398.5677795410156	373.2160034179688	644.8447265625	-445.990966796875	517.2282104492188	43.86428451538086	-426.7244873046875	457.3840026855469	287.5683898925781	-433.9474182128906	713.7554321289062	99.65933990478516	-328.079833984375	654.0300903320312	88.35880279541016	-320.0741882324219	637.4592895507812	77.47841644287109	-424.67138671875	441.8564147949219	29.81822776794434	-385.4630126953125	191.1002197265625	496.8716735839844	-126.6662521362305	261.8365478515625	759.7289428710938	-84.49065399169922	-64.35226440429688	62.96063613891602	-144.1842041015625	131.6250610351562	380.6505432128906	-127.0525207519531	154.8501739501953	38.82055282592773	-220.0169982910156	90.45095062255859	49.87487411499023	-238.9545440673828	83.09377288818359	37.05173492431641	-142.8750762939453	-125.4125747680664	77.84915161132812	-178.9230804443359	
355	3.54	161.436767578125	1033.292724609375	-179.5917816162109	154.1952819824219	1025.963134765625	-343.5369873046875	154.1782531738281	1095.941772460938	-266.5505676269531	382.5108642578125	1282.452270507812	-274.3216857910156	132.9646759033203	1240.845703125	-264.8898315429688	184.8766174316406	1506.025634765625	-282.3193969726562	343.080810546875	1409.662719726562	-281.3962097167969	134.3762664794922	1373.250122070312	-195.8207855224609	163.2699584960938	1462.773559570312	-377.4031677246094	263.4158630371094	1463.245239257812	-456.4217529296875	215.0507507324219	1339.466186523438	-526.3687133789062	177.9756317138672	1125.333862304688	-542.8682861328125	130.2246704101562	1125.054931640625	-447.6022644042969	209.4421997070312	858.622314453125	-487.8074340820312	127.5336837768555	863.2710571289062	-522.6597290039062	165.1126098632812	1009.437377929688	-546.1516723632812	194.4972839355469	674.9118041992188	-468.99365234375	137.3211975097656	768.2500610351562	-521.5719604492188	209.1040649414062	766.9503784179688	-503.3638000488281	270.6842651367188	1494.790161132812	-110.7593002319336	261.7012939453125	1424.325073242188	-35.67635345458984	241.6760101318359	1154.902221679688	1.506599426269531	228.1136322021484	1123.563354492188	-92.73126983642578	391.3763427734375	908.858154296875	-42.35866546630859	336.5443115234375	888.4151000976562	28.16971397399902	263.0722351074219	1079.9697265625	16.26702308654785	429.000732421875	725.8953247070312	-58.2185173034668	437.693115234375	803.2394409179688	-31.16655158996582	387.6091918945312	793.1024780273438	23.06857109069824	240.6442565917969	1687.155517578125	-346.8353881835938	427.2408142089844	1695.388671875	-233.3909759521484	423.1293029785156	1695.583984375	-332.3157958984375	255.5042266845703	1682.654418945312	-203.161865234375	254.2318115234375	929.3287353515625	-452.3859252929688	274.6282958984375	926.9387817382812	-78.12974548339844	377.2095336914062	953.5855712890625	-151.5112152099609	366.8739318847656	977.8501586914062	-386.9812316894531	461.7047119140625	533.9474487304688	-399.7181701660156	383.8426818847656	644.7280883789062	-446.8521118164062	520.4676513671875	42.08616256713867	-426.822509765625	464.8276062011719	286.2627258300781	-434.0411987304688	718.178466796875	93.17298889160156	-328.3095092773438	658.3158569335938	83.10150909423828	-320.2503356933594	641.3404541015625	72.69310760498047	-424.8356323242188	444.8819885253906	30.15768241882324	-385.2057189941406	198.5768890380859	496.4346923828125	-127.8527450561523	270.2069396972656	759.1627197265625	-86.15796661376953	-63.25356292724609	65.63910675048828	-143.5599212646484	137.7696990966797	380.6624755859375	-127.8137893676758	154.9415130615234	38.80857467651367	-220.0190734863281	91.04161071777344	50.69771194458008	-238.5870056152344	83.62709045410156	37.05425643920898	-142.7886810302734	-124.1687545776367	81.62821197509766	-178.1930694580078	
356	3.55	171.0232543945312	1032.746459960938	-182.0966796875	164.2828979492188	1025.638427734375	-346.1033630371094	163.8435516357422	1095.143432617188	-269.0009460449219	391.6304321289062	1282.060424804688	-276.084716796875	142.2701110839844	1240.0556640625	-267.37060546875	193.6871948242188	1505.4345703125	-284.5208740234375	351.9916381835938	1409.227294921875	-283.2513122558594	143.0857238769531	1372.445556640625	-198.2900238037109	172.4086608886719	1462.134033203125	-379.7093200683594	272.76318359375	1462.732421875	-458.5114135742188	224.2647399902344	1338.961547851562	-528.4170532226562	186.0477752685547	1124.975219726562	-544.4265747070312	138.4279174804688	1125.17333984375	-449.1026916503906	215.0027313232422	857.9441528320312	-488.7998046875	133.2822418212891	863.4276733398438	-523.8428344726562	172.2451782226562	1009.168029785156	-547.4894409179688	198.655029296875	674.9608764648438	-469.9871215820312	142.0667724609375	768.2831420898438	-522.5240478515625	214.1635437011719	766.6530151367188	-504.4044494628906	278.9765319824219	1494.124145507812	-112.7382431030273	269.9867858886719	1423.569702148438	-37.71313095092773	250.6949615478516	1154.021240234375	-0.7394340634346008	237.3029022216797	1122.712768554688	-95.01029205322266	402.4761657714844	909.4163208007812	-45.25540542602539	347.8482055664062	888.1839599609375	25.20414352416992	272.5457153320312	1079.10546875	13.88830375671387	442.0280456542969	726.9028930664062	-61.66331100463867	449.8946838378906	804.2545166015625	-34.3765983581543	399.9222717285156	793.4203491210938	19.84484481811523	249.4271697998047	1686.76904296875	-348.7287292480469	435.7659606933594	1695.057983398438	-234.8737640380859	431.8479309082031	1695.30224609375	-333.7902221679688	263.9595947265625	1682.192993164062	-205.0323028564453	265.002197265625	929.2183837890625	-454.5919494628906	283.6551818847656	926.1019287109375	-80.10667419433594	386.641357421875	952.9594116210938	-153.2481384277344	377.263916015625	977.5924072265625	-388.7905578613281	471.7935485839844	533.5663452148438	-400.9650268554688	394.4517822265625	644.8223266601562	-447.7481384277344	522.7925415039062	40.40444946289062	-426.9397583007812	471.9810791015625	285.1162719726562	-434.1528015136719	721.7362060546875	85.85520935058594	-328.3789367675781	661.752197265625	77.26902770996094	-320.3473205566406	644.422607421875	67.47087860107422	-424.9620666503906	446.9969482421875	30.9022045135498	-384.9478454589844	206.5077667236328	496.0181274414062	-129.1496429443359	278.8884582519531	758.6605224609375	-87.94098663330078	-61.99876022338867	68.58071136474609	-142.9635772705078	144.3205718994141	380.7196655273438	-128.6356658935547	155.0279541015625	38.79851531982422	-220.0130615234375	91.65038299560547	51.50149536132812	-238.2611541748047	84.23940277099609	37.09033966064453	-142.7127685546875	-122.6954650878906	85.78025817871094	-177.5014190673828	
357	3.56	180.7838134765625	1032.357177734375	-184.5107727050781	174.3342590332031	1025.560668945312	-348.5990295410156	173.605224609375	1094.563354492188	-271.3610229492188	400.7957763671875	1281.861938476562	-277.8892822265625	151.6312255859375	1239.456298828125	-269.8304138183594	202.5508117675781	1505.02685546875	-286.7566223144531	360.9576416015625	1408.979125976562	-285.1335144042969	151.8544006347656	1371.829345703125	-200.7931365966797	181.6107177734375	1461.68408203125	-382.0556945800781	282.1693420410156	1462.406616210938	-460.6339111328125	233.6105041503906	1338.626953125	-530.5147094726562	194.3588104248047	1124.768432617188	-546.062255859375	146.8118286132812	1125.408935546875	-450.7065124511719	220.9618835449219	857.4735107421875	-489.8709411621094	139.4401245117188	863.7249145507812	-525.1328125	179.6983947753906	1009.052062988281	-548.90869140625	203.1395263671875	675.0371704101562	-470.9606628417969	147.2716979980469	768.4686889648438	-523.5697021484375	219.0854034423828	765.9458618164062	-505.12060546875	287.3255004882812	1493.638061523438	-114.7414169311523	278.3132629394531	1422.982421875	-39.78421020507812	259.6378173828125	1153.312866210938	-3.075424432754517	246.4862670898438	1122.033569335938	-97.37589263916016	413.4100341796875	910.1011352539062	-48.14256286621094	358.9193725585938	888.0973510742188	22.21913146972656	281.9388122558594	1078.411865234375	11.44654560089111	454.8187561035156	728.025634765625	-65.02983856201172	461.8570861816406	805.3802490234375	-37.52614593505859	411.9841003417969	793.8737182617188	16.66695213317871	258.2625427246094	1686.582885742188	-350.6497192382812	444.3400268554688	1694.921264648438	-236.3500823974609	440.6196899414062	1695.230834960938	-335.2722778320312	272.4568481445312	1681.910522460938	-206.9245758056641	275.8178100585938	929.4224243164062	-456.8278503417969	292.8724365234375	925.2951049804688	-82.07109832763672	396.2539672851562	952.4898681640625	-155.1224670410156	387.7307739257812	977.5722045898438	-390.7060241699219	481.9093627929688	533.3582763671875	-402.2685241699219	405.0284423828125	645.1423950195312	-448.6806945800781	524.5169067382812	38.88938903808594	-427.1084289550781	478.9555969238281	284.1838073730469	-434.3695678710938	724.6268920898438	78.22441101074219	-328.2989807128906	664.5416259765625	71.3001708984375	-320.3836059570312	646.9434204101562	62.13028717041016	-425.0653381347656	448.540283203125	31.97384071350098	-384.7599182128906	214.9518585205078	495.6291198730469	-130.5495910644531	287.9024353027344	758.2468872070312	-89.85844421386719	-60.56078720092773	71.81868743896484	-142.4328918457031	151.3036804199219	380.82958984375	-129.5130004882812	155.0978240966797	38.78537750244141	-219.9975433349609	92.25546264648438	52.24731063842773	-238.0109252929688	84.938232421875	37.16634750366211	-142.6540832519531	-120.9425201416016	90.35324096679688	-176.9047241210938	
